<svg xmlns="http://www.w3.org/2000/svg" width="200" height="200" viewBox="0 0 200 200">
  <defs>
    <linearGradient id="grad" x1="0%" y1="0%" x2="100%" y2="100%">
      <stop offset="0%" style="stop-color:#6366f1;stop-opacity:1" />
      <stop offset="100%" style="stop-color:#ec4899;stop-opacity:1" />
    </linearGradient>
  </defs>
  <circle cx="100" cy="100" r="90" fill="#1a1a1a" stroke="url(#grad)" stroke-width="4" />
  
  <!-- Neural Network Nodes -->
  <circle cx="70" cy="60" r="8" fill="url(#grad)" />
  <circle cx="130" cy="60" r="8" fill="url(#grad)" />
  <circle cx="50" cy="100" r="8" fill="url(#grad)" />
  <circle cx="100" cy="100" r="10" fill="url(#grad)" />
  <circle cx="150" cy="100" r="8" fill="url(#grad)" />
  <circle cx="70" cy="140" r="8" fill="url(#grad)" />
  <circle cx="130" cy="140" r="8" fill="url(#grad)" />
  
  <!-- Neural Network Connections -->
  <line x1="70" y1="60" x2="50" y2="100" stroke="url(#grad)" stroke-width="2" />
  <line x1="70" y1="60" x2="100" y2="100" stroke="url(#grad)" stroke-width="2" />
  <line x1="70" y1="60" x2="150" y2="100" stroke="url(#grad)" stroke-width="2" />
  <line x1="130" y1="60" x2="50" y2="100" stroke="url(#grad)" stroke-width="2" />
  <line x1="130" y1="60" x2="100" y2="100" stroke="url(#grad)" stroke-width="2" />
  <line x1="130" y1="60" x2="150" y2="100" stroke="url(#grad)" stroke-width="2" />
  <line x1="50" y1="100" x2="70" y2="140" stroke="url(#grad)" stroke-width="2" />
  <line x1="50" y1="100" x2="130" y2="140" stroke="url(#grad)" stroke-width="2" />
  <line x1="100" y1="100" x2="70" y2="140" stroke="url(#grad)" stroke-width="2" />
  <line x1="100" y1="100" x2="130" y2="140" stroke="url(#grad)" stroke-width="2" />
  <line x1="150" y1="100" x2="70" y2="140" stroke="url(#grad)" stroke-width="2" />
  <line x1="150" y1="100" x2="130" y2="140" stroke="url(#grad)" stroke-width="2" />
</svg> 